<svg width="4" height="16" viewBox="0 0 4 16" fill="none" xmlns="http://www.w3.org/2000/svg">
<path d="M2.00002 8.83333C2.46026 8.83333 2.83335 8.46024 2.83335 8C2.83335 7.53976 2.46026 7.16667 2.00002 7.16667C1.53978 7.16667 1.16669 7.53976 1.16669 8C1.16669 8.46024 1.53978 8.83333 2.00002 8.83333Z" stroke="#98A2B3" stroke-width="1.66667" stroke-linecap="round" stroke-linejoin="round"/>
<path d="M2.00002 3C2.46026 3 2.83335 2.6269 2.83335 2.16667C2.83335 1.70643 2.46026 1.33333 2.00002 1.33333C1.53978 1.33333 1.16669 1.70643 1.16669 2.16667C1.16669 2.6269 1.53978 3 2.00002 3Z" stroke="#98A2B3" stroke-width="1.66667" stroke-linecap="round" stroke-linejoin="round"/>
<path d="M2.00002 14.6667C2.46026 14.6667 2.83335 14.2936 2.83335 13.8333C2.83335 13.3731 2.46026 13 2.00002 13C1.53978 13 1.16669 13.3731 1.16669 13.8333C1.16669 14.2936 1.53978 14.6667 2.00002 14.6667Z" stroke="#98A2B3" stroke-width="1.66667" stroke-linecap="round" stroke-linejoin="round"/>
</svg>
